<?xml version="1.0" encoding="UTF-8"?>
<!DOCTYPE svg PUBLIC "-//W3C//DTD SVG 1.1//EN" "http://www.w3.org/Graphics/SVG/1.1/DTD/svg11.dtd">
<!-- Creator: CorelDRAW -->
<svg xmlns="http://www.w3.org/2000/svg" xml:space="preserve" width="110px" height="72px" version="1.1" style="shape-rendering:geometricPrecision; text-rendering:geometricPrecision; image-rendering:optimizeQuality; fill-rule:evenodd; clip-rule:evenodd"
viewBox="0 0 110 72.01"
 xmlns:xlink="http://www.w3.org/1999/xlink"
 xmlns:xodm="http://www.corel.com/coreldraw/odm/2003">
 <defs>
  <style type="text/css">
   <![CDATA[
    .fil0 {fill:black}
   ]]>
  </style>
 </defs>
 <g id="Camada_x0020_1">
  <metadata id="CorelCorpID_0Corel-Layer"/>
  <g id="_2532019218816">
   <path class="fil0" d="M6.67 54.44l1.13 0 13.32 -34.05c0.36,-0.88 0.71,-1.72 1.02,-2.59 0.33,-0.9 0.71,-1.73 1.02,-2.6 0.31,-0.86 0.83,-1.85 1.03,-2.7l8.47 20.93c1.4,3.51 2.71,6.93 4.13,10.45 0.37,0.92 0.65,1.68 1.02,2.6l3.11 7.96 9.73 0c-0.24,-0.5 -0.47,-1.17 -0.68,-1.7 -0.23,-0.56 -0.45,-1.13 -0.68,-1.69l-20.35 -50.99 -0.9 0 -18.75 47.5c-0.47,1.16 -0.88,2.24 -1.34,3.41 -0.27,0.66 -1.23,2.92 -1.28,3.47z"/>
   <path class="fil0" d="M53.47 34.54l7.8 0 0 11.99c0,4.43 -3.65,6.89 -8.13,6.89 0.07,0.33 0.21,0.75 0.33,1.02 2.16,0 4.71,-0.64 6.6,-1.55 2.1,-1.01 6.24,-3.1 8.3,-1.36 0.43,0.37 0.99,1.09 1.04,1.78l0.8 0 0 -19.33c0,-0.26 -0.08,-0.34 -0.34,-0.34l-16.4 0 0 0.9z"/>
   <path class="fil0" d="M38.55 4.36c0.05,0.56 0.2,0.32 0.34,0.9 2.48,-1.31 7.67,-2.83 10.51,-2.83 3.33,0 4.84,0.11 7.73,1.55 2.07,1.03 3.89,2.64 5.28,4.44 0.28,0.38 0.52,0.74 0.79,1.14 1.65,2.48 2.68,5.21 3.39,8.25l0.79 0 0 -14.7c-1.63,0 -0.47,1.47 -3.05,1.47 -2.03,0 -7.83,-3.16 -12.78,-3.16 -3.93,0 -6.91,0.49 -10.46,1.85 -0.85,0.33 -1.8,0.7 -2.54,1.09z"/>
   <path class="fil0" d="M73.94 49.01c0,0.67 0.2,1.8 0.41,2.3 1.95,4.59 8.82,3.01 9.38,2.3 0.41,-0.51 1.06,-2.32 1.06,-3.24 -0.61,0.16 -0.09,-0.03 -0.68,1.24 -2.03,4.38 -9.66,2.83 -8.43,-4.93 0.55,-3.51 2.8,-5.69 6.62,-5.69 1.18,0 3.51,0.61 3.51,1.47 0,1.1 -0.17,0.53 -0.23,1.24l0.34 0c0.23,-0.98 2.67,-3.39 -2.71,-3.39 -4.33,0 -8,2.44 -9.02,6.7 -0.11,0.44 -0.25,1.53 -0.25,2z"/>
   <path class="fil0" d="M88.97 62.69c0,1.17 0.13,3.26 -0.11,4.3 -0.32,0.15 -0.22,0.11 -0.68,0.11l0 0.34 2.15 0 0 -0.34c-0.54,0 -0.71,0.02 -0.79,-0.45l0 -3.73c0.28,0.32 0.33,0.65 0.53,1.05l1.03 2.36c0.19,0.44 0.36,0.73 0.47,1.22l0.34 0 2.15 -4.86c0,1.38 0.16,3.12 -0.11,4.3 -0.32,0.15 -0.22,0.11 -0.68,0.11l0 0.34 2.49 0 0 -0.34c-0.46,0 -0.8,-0.01 -0.8,-0.45l0 -4.18c0,-0.41 0.27,-0.45 0.68,-0.46l0 -0.34 -1.81 0c-0.02,0.27 -1.56,4.04 -1.92,4.3l-1.81 -4.3 -1.92 0c0.2,0.75 0.79,-0.09 0.79,1.02z"/>
   <path class="fil0" d="M68.62 63.94c0,1.35 0.69,2.72 1.73,3.24 2.14,1.08 3.94,-0.42 4.49,-0.42l0.45 0c0,-0.96 -0.07,-1 0.12,-1.81 0.27,-0.15 0.21,-0.11 0.67,-0.11l0 -0.45 -2.71 0 0 0.45c0.49,0 0.91,-0.01 0.91,0.9 0,1.53 -4.3,2.43 -4.3,-1.8 0,-3.67 2.7,-3.71 3.82,-2.8 0.49,0.4 0.43,0.66 0.59,1.33l0.45 0 0.11 -2.26c-0.62,0.05 -0.34,0.09 -0.56,0.56 -1.07,-0.71 -2.31,-0.92 -3.56,-0.39 -1.37,0.58 -2.21,1.93 -2.21,3.56z"/>
   <path class="fil0" d="M93.04 50.14c0.54,-0.14 2.03,-2.22 0.47,2.05 -0.22,0.6 -1,2.25 -0.58,2.25 1.05,0 1,-0.29 1.31,-1.07 0.25,-0.64 0.44,-1.05 0.76,-1.61 0.51,-0.92 1.32,-2.18 2.68,-2.18 -0.01,0.55 -2.15,4.86 -0.34,4.86 0.9,0 1.87,-0.86 2.03,-1.58 -0.68,0.18 -0.45,0.71 -1.35,0.79 -0.32,-0.66 -0.13,-1.46 0.16,-2.22 0.47,-1.24 1.58,-2.64 0.18,-2.64 -0.68,0 -1.55,0.45 -1.95,0.77 -0.49,0.4 -1.16,1.25 -1.33,1.37 0.09,-1.05 0.52,-0.77 0.22,-2.03 -0.54,-0.13 -0.79,-0.28 -1.56,0.36 -0.33,0.27 -0.58,0.43 -0.7,0.88z"/>
   <path class="fil0" d="M3.39 61.67c0.02,0.03 0.04,0.04 0.04,0.08l0.98 2.64 -2.04 0 1.02 -2.72zm-3.39 5.77l2.37 0 0 -0.34c-0.34,-0.03 -0.54,-0.11 -0.79,-0.23 0.02,-0.84 0.4,-1.33 0.57,-2.03l2.48 0c1.14,2.37 0.32,2.14 -0.22,2.26l0 0.34 3.05 0 0 -0.34c-1.2,-0.28 -1.32,-1.39 -2.03,-3.16l-1.47 -3.73 -0.57 0c-0.04,0.43 -0.52,1.46 -0.69,1.9 -0.26,0.63 -1.66,4.4 -1.99,4.68 -0.54,0.46 -0.65,-0.13 -0.71,0.65z"/>
   <path class="fil0" d="M29.85 64.27l-0.68 0 0 -2.26c1.71,0 1.92,0.07 1.92,1.47 0,0.48 -0.7,0.79 -1.24,0.79zm-2.26 -2.26c0.39,0 0.67,-0.07 0.67,0.34l0 4.3c0,0.44 -0.33,0.45 -0.79,0.45l0 0.34 2.71 0 0 -0.34c-1.21,0 -1.01,0 -1.01,-2.37 0.71,0.01 0.75,0.24 1.43,1.16 0.42,0.56 0.78,0.98 1.17,1.55l1.58 0 0 -0.34c-0.44,-0.01 -0.68,-0.1 -0.91,-0.33 -0.11,-0.09 -0.46,-0.53 -0.58,-0.67 -0.28,-0.35 -1.01,-1.12 -1.11,-1.49 1.28,-0.1 1.92,-1.64 0.94,-2.52 -0.76,-0.68 -2.76,-0.42 -4.1,-0.42l0 0.34z"/>
   <path class="fil0" d="M10.85 62.13c0.03,0.35 0.12,0.4 0.12,0.79l0 3.28c0,0.39 -0.09,0.43 -0.12,0.79 -0.31,0.15 -0.22,0.11 -0.68,0.11l0 0.34 2.04 0 0 -0.34c-0.46,0 -0.36,0.04 -0.68,-0.11 0,-0.75 -0.12,-1.1 -0.11,-1.92 0,-0.72 0,-1.44 0,-2.15 0.38,0.26 2.39,3.04 2.82,3.62 0.54,0.72 0.57,1 1.25,1.01l0 -4.18c0,-0.63 0.11,-0.67 0.11,-1.24 0.54,-0.13 0.67,0.01 0.79,-0.46l-2.15 0c0.16,0.58 0.14,0.2 0.68,0.46 0.05,0.6 0.12,1.03 0.12,1.81 -0.01,0.67 0,1.35 0,2.03l-0.8 -1.02c-0.37,-0.49 -2.27,-2.91 -2.37,-3.28l-1.7 0c0.16,0.58 0.14,0.2 0.68,0.46z"/>
   <path class="fil0" d="M80.27 64.73c0,-3.84 4.18,-3.25 4.18,-0.57 0,1.16 -0.05,2.94 -2.04,2.94 -1.35,0 -2.14,-1.01 -2.14,-2.37zm-1.02 -0.46l0 0.57c0,2.39 3.55,3.7 5.43,1.82 1.76,-1.76 0.91,-5.1 -2.6,-5.1 -1.37,0 -2.83,1.37 -2.83,2.71z"/>
   <path class="fil0" d="M20.58 65.86l0 -3.51c0,-0.74 2.13,-0.22 2.62,0.32 1.38,1.55 0.47,5.03 -1.96,4.33 -0.34,-0.1 -0.36,-0.07 -0.52,-0.38 -0.09,-0.2 -0.14,-0.51 -0.14,-0.76zm-0.8 -3.17c0,3.95 0.39,4.41 -0.9,4.41l0 0.34c1.87,0 5.99,0.72 5.99,-2.83 0,-1.33 -0.79,-2.23 -1.73,-2.68 -0.98,-0.46 -2.8,-0.26 -4.15,-0.26 0.2,0.75 0.79,-0.09 0.79,1.02z"/>
   <path class="fil0" d="M102.31 49.01c-0.72,0 -1.08,-0.03 -1.24,0.57 0.44,-0.04 0.44,-0.11 1.02,-0.11 -0.08,0.31 -0.18,0.48 -0.3,0.83 -0.34,0.99 -1.59,4.14 0.3,4.14 0.91,0 2.08,-0.89 2.14,-1.7 -0.46,0.13 -0.23,0.16 -0.58,0.55 -0.34,0.35 -1.34,0.76 -1.34,-0.32 0,-1.1 0.65,-2.96 1.02,-3.73 0.34,0 0.69,0.01 1.03,0.01 0.62,0 0.66,0.11 0.78,-0.35l-1.7 0c0.24,-0.45 1.33,-2.5 1.36,-2.83 -0.82,0.4 -0.91,-0.06 -1.61,1.11 -0.23,0.4 -0.78,1.4 -0.88,1.83z"/>
   <path class="fil0" d="M88.75 53.65l-0.34 0c-1.14,0 -1.11,-4.07 0.79,-4.07 0.44,0 0.61,0.16 0.76,0.48 0.63,1.27 0,3.59 -1.21,3.59zm-0.68 0.79c0.65,0 1.35,-0.48 1.8,-0.92 1.92,-1.87 2.08,-4.73 -0.11,-4.73 -1.81,0 -3.56,2.97 -3.2,4.43 0.18,0.74 0.64,1.22 1.51,1.22z"/>
   <path class="fil0" d="M98.47 62.01c0.46,0 0.36,-0.03 0.68,0.12l0 4.86c-0.34,0.08 -0.35,0.11 -0.79,0.11l0 0.34 4.74 0c0,-0.56 0.12,-0.78 0.12,-1.47l-0.34 0c-0.34,1.47 -2,1.25 -2.72,0.9 -0.19,-0.84 -0.11,-1.25 -0.11,-2.26 0.83,0 1.34,0.09 1.36,0.91l0.34 0 0 -2.15 -0.34 0c-0.01,0.46 -0.05,0.57 -0.41,0.72 -0.16,0.06 -0.77,0.17 -0.95,0.18l0 -2.26c0.74,0 1.93,-0.13 2.29,0.32 0.38,0.48 -0.06,0.54 0.54,0.7l0 -1.36 -4.41 0 0 0.34z"/>
   <path class="fil0" d="M35.5 62.01c0.46,0 0.36,-0.03 0.68,0.12 0.03,0.35 0.11,0.4 0.11,0.79l0 3.05c0,1.88 -0.67,0.6 -0.9,1.47l4.74 0c0.05,-0.51 0.12,-0.78 0.12,-1.47l-0.34 0c-0.4,1.72 -2.42,1.06 -2.6,0.9 -0.37,-0.35 -0.23,-1.5 -0.23,-2.26 0.87,0 1.34,0.06 1.36,0.91l0.34 0 0 -2.15 -0.34 0c-0.01,0.46 -0.05,0.57 -0.41,0.72 -0.16,0.06 -0.77,0.17 -0.95,0.18l0 -2.26c1.7,0 2.31,-0.22 2.6,1.02l0.34 0c-0.01,-0.44 -0.11,-0.5 -0.11,-1.36l-4.41 0 0 0.34z"/>
   <path class="fil0" d="M43.19 63.14c0,1.81 2.94,1.82 2.94,2.83 0,0.49 0.08,1.13 -1.14,1.13 -1.05,0 -1.49,-0.61 -1.69,-1.47l-0.34 0c0,0.58 0.11,1.06 0.11,1.81 0.25,-0.07 0.12,-0.05 0.3,-0.16 0.38,-0.24 -0.24,0.01 0.27,-0.18 0.72,0.63 2.03,0.57 2.69,0.09 0.72,-0.53 0.7,-0.82 0.7,-1.56 0,-1.52 -3.05,-1.63 -3.05,-2.83 0,-0.84 1.44,-1.14 1.99,-0.29 0.28,0.43 0.12,0.62 0.61,0.75l0 -1.59c-1.01,0.11 0.43,0.43 -1.09,-0.04 -0.57,-0.17 -1.36,-0.05 -1.77,0.35 -0.23,0.22 -0.53,0.79 -0.53,1.16z"/>
   <path class="fil0" d="M106.16 63.26c0,1.76 2.94,1.47 2.94,2.94 0,1.2 -2.36,1.46 -2.83,-0.57l-0.34 0c0,0.73 0.11,1.02 0.11,1.81 0.25,-0.07 0.12,-0.05 0.3,-0.16 0.38,-0.24 -0.24,0.01 0.27,-0.18 0.15,0.13 -0.08,-0.02 0.19,0.15 0.07,0.04 0.23,0.12 0.3,0.15 0.95,0.39 2.9,0.18 2.9,-1.77 0,-1.58 -3.05,-1.45 -3.05,-2.94 0,-0.68 1.34,-0.98 1.94,-0.25 0.33,0.41 0.13,0.68 0.66,0.82l0 -1.59c-0.82,0.09 0.09,0.38 -0.71,0.16 -0.45,-0.13 -0.13,-0.27 -0.99,-0.27 -1,0 -1.69,0.69 -1.69,1.7z"/>
   <path class="fil0" d="M50.08 63.03c0,2.21 2.94,1.58 2.94,3.17 0,1.37 -2.68,1.22 -2.82,-0.57l-0.34 0c0,0.78 0.11,1.15 0.11,1.81 0.37,-0.1 0.16,-0.19 0.56,-0.34 1.15,1 3.4,0.31 3.4,-1.24 0,-1.98 -3.06,-1.63 -3.06,-3.06 0,-1.04 1.86,-1.27 2.27,0.46l0.33 0c0,-0.71 0.02,-1.01 -0.11,-1.59 -0.6,0.16 -0.1,0.28 -0.6,0.15 -0.52,-0.13 0.02,-0.26 -1.21,-0.26 -0.69,0 -1.47,0.78 -1.47,1.47z"/>
   <path class="fil0" d="M58.79 62.92c0.36,0.26 0.58,1.36 0.9,2.03l-1.58 0c0.06,-0.69 0.62,-1.33 0.68,-2.03zm-2.72 4.52l1.93 0 0 -0.34c-0.78,-0.02 -0.8,-0.41 -0.12,-1.69l2.04 0c0.07,0.85 0.34,0.37 0.34,1.69l-0.68 0 0 0.34 2.6 0c-0.17,-0.63 -0.11,-0.14 -0.58,-0.44 -0.42,-0.28 -2.23,-5.12 -2.25,-5.33 -0.68,0.02 -0.47,0 -0.98,1.28 -0.22,0.55 -1.42,3.73 -1.68,3.97 -0.48,0.42 -0.45,-0.12 -0.62,0.52z"/>
   <path class="fil0" d="M75.86 71.96l0.56 0c0.02,-0.61 0.23,-0.92 0.23,-1.58l0.58 1.58 0.55 0c0.11,-0.23 0.17,-0.44 0.27,-0.75 0.02,-0.07 0.08,-0.25 0.11,-0.34l0.19 -0.38c0.09,0.41 0.22,0.99 0.22,1.47l0.57 0c0,-0.64 -0.14,-1.13 -0.23,-1.69 -0.14,-0.91 0.12,-1.13 -0.79,-1.13l-0.58 1.8c-0.07,-0.11 0.01,0.04 -0.11,-0.21 -0.61,-1.36 -0.07,-1.59 -1.12,-1.59 -0.07,0.86 -0.45,1.89 -0.45,2.82z"/>
   <path class="fil0" d="M15.04 70.61l0 -0.12c0,-1.17 1.69,-1.17 1.69,0l0 0.12c0,1.16 -1.69,1.16 -1.69,0zm-0.68 -0.12c0,2.15 3.05,1.97 3.05,0.12 0,-2.15 -3.05,-1.97 -3.05,-0.12z"/>
   <path class="fil0" d="M52.46 71.96l0.68 0 0 -1.58c0.79,0.58 0.53,1.58 1.69,1.58l0 -2.82 -0.56 0 0 1.69c-0.26,-0.19 -0.43,-0.53 -0.64,-0.83 -0.63,-0.96 -0.22,-0.86 -1.17,-0.86l0 2.82z"/>
   <path class="fil0" d="M51.44 70.49l0 0.12c0,1.16 -1.72,1.14 -1.78,-0.02 -0.06,-1.14 1.78,-1.34 1.78,-0.1zm-2.38 0c0,2.13 2.94,1.9 2.94,0.34 0,-0.84 -0.22,-1.81 -1.35,-1.81 -0.88,0 -1.59,0.63 -1.59,1.47z"/>
   <path class="fil0" d="M64.67 69.59c0.98,0 1.31,1.53 0.26,1.85 -1.27,0.4 -1.56,-1.85 -0.26,-1.85zm0.13 2.49l-0.18 0c-0.72,-0.05 -1.42,-0.61 -1.42,-1.59 0,-1.91 2.94,-1.9 2.94,-0.11 0,1.12 -0.65,1.65 -1.34,1.7z"/>
   <path class="fil0" d="M32.56 71.4l-0.45 0 0 -1.7c0.5,0 1.01,0.1 1.01,0.57l0 0.56c0,0.27 -0.3,0.57 -0.56,0.57zm-1.13 0.56l1.24 0c0.68,0 1.13,-0.69 1.13,-1.35 0,-0.74 -0.49,-1.47 -1.24,-1.47l-1.13 0 0 2.82z"/>
   <path class="fil0" d="M38.21 71.4l-0.45 0 0 -1.7c0.66,0 1.02,0.14 1.02,0.79l0 0.34c0,0.27 -0.31,0.57 -0.57,0.57zm-1.13 0.56l1.13 0c0.73,0 1.25,-0.62 1.25,-1.35 0,-0.69 -0.56,-1.47 -1.25,-1.47l-1.13 0 0 2.82z"/>
   <path class="fil0" d="M17.86 71.96l0.57 0 0 -1.69 0.29 0.38c0.76,1.1 0.59,1.31 1.4,1.31l0 -2.82 -0.56 0 0 1.69c-0.11,-0.12 0.02,0.05 -0.16,-0.18 -0.85,-1.12 -0.63,-1.51 -1.54,-1.51l0 2.82z"/>
   <path class="fil0" d="M91.69 70.15l0 -0.45c0.58,0.01 0.32,-0.1 0.56,0.23 -0.24,0.33 0.02,0.21 -0.56,0.22zm-0.68 1.81l0.68 0 0 -1.01 0.56 1.01 0.68 0c-0.19,-0.35 -0.53,-0.89 -0.57,-1.35 0.89,-0.24 0.31,-1.47 -0.22,-1.47l-1.13 0 0 2.82z"/>
   <path class="fil0" d="M25.89 71.4l0 -0.68c0.53,0.04 0.48,0.08 0.68,0.45 -0.26,0.17 -0.23,0.22 -0.68,0.23zm0 -1.25l0 -0.45c0.52,0.05 0.2,-0.12 0.45,0.23 -0.26,0.36 0.08,0.17 -0.45,0.22zm-0.57 1.81c0.59,0 1.81,0.15 1.81,-0.79 0,-0.2 -0.12,-0.56 -0.45,-0.68 0,0 0.77,-1.35 -0.57,-1.35l-0.79 0 0 2.82z"/>
   <path class="fil0" d="M82.41 70.15l0 -0.45c0.59,0.01 0.33,-0.1 0.57,0.23 -0.24,0.33 0.02,0.21 -0.57,0.22zm-0.56 1.81l0.56 0 0 -1.01 0.57 1.01 0.68 0c-0.19,-0.35 -0.53,-0.89 -0.57,-1.35 0.78,-0.21 0.55,-1.47 -0.33,-1.47l-0.91 0 0 2.82z"/>
   <path class="fil0" d="M11.3 70.49c0,0.84 0.66,1.59 1.47,1.59 0.77,0 0.93,-0.28 1.36,-0.57l-0.36 -0.43c-0.24,0.15 -0.59,0.42 -0.98,0.4 -1.15,-0.05 -1.1,-1.89 0.1,-1.89 0.27,0 0.72,0.33 0.9,0.45l0.36 -0.43c-0.45,-0.31 -0.61,-0.59 -1.38,-0.59 -0.69,0 -1.47,0.78 -1.47,1.47z"/>
   <path class="fil0" d="M71.22 70.04l0.24 0.79 -0.58 0c0.03,-0.31 0.02,-0.25 0.11,-0.45 0.08,-0.17 0.14,-0.23 0.23,-0.34zm-1.47 1.92l0.68 0c0.06,-0.26 0.09,-0.26 0.11,-0.56l1.25 0c0.02,0.3 0.05,0.3 0.11,0.56l0.68 0c-0.23,-0.42 -0.38,-0.96 -0.58,-1.45 -0.01,-0.03 -0.72,-2.5 -1.37,-0.83l-0.88 2.28z"/>
   <path class="fil0" d="M23.63 70.04c0.04,0.48 0.13,0.37 0.22,0.79l-0.67 0c0.18,-0.35 0.16,-0.58 0.45,-0.79zm-1.47 1.92l0.68 0c0.02,-0.3 0.05,-0.31 0.11,-0.56l1.13 0c0.25,0.51 0,0.56 0.79,0.56 -0.04,-0.43 -0.33,-0.97 -0.49,-1.42 -0.18,-0.49 -0.42,-0.97 -0.53,-1.4l-0.67 0c-0.05,0.55 -0.87,2.15 -1.02,2.82z"/>
   <path class="fil0" d="M35.27 70.15l0.23 0c0.06,0.28 0.12,0.46 0.22,0.68l-0.67 0c0.1,-0.22 0.16,-0.4 0.22,-0.68zm-1.24 1.81c0.66,0 0.66,-0.02 0.79,-0.56l1.13 0c0.13,0.54 0.13,0.56 0.79,0.56 -0.22,-0.97 -0.79,-1.88 -1.02,-2.82l-0.67 0c-0.22,0.94 -0.8,1.85 -1.02,2.82z"/>
   <path class="fil0" d="M46.01 70.38c0,1.02 0.54,1.7 1.47,1.7 0.61,0 0.85,-0.25 1.25,-0.46 -0.07,-0.29 -0.11,-0.33 -0.23,-0.56 -0.32,0.17 -0.66,0.47 -1.09,0.41 -1.24,-0.18 -0.92,-1.88 0.07,-1.88 0.53,0 1.11,0.69 1.22,0.1 0.14,-0.82 -2.69,-1.09 -2.69,0.69z"/>
   <path class="fil0" d="M67.27 69.7c0.5,0.01 0.52,-0.04 0.56,0.45l-0.56 0 0 -0.45zm-0.57 2.26l0.57 0 0 -1.01c0.27,0.31 0.45,0.55 0.56,1.01l0.68 0c-0.19,-0.35 -0.53,-0.89 -0.56,-1.35 0.73,-0.2 0.63,-1.47 -0.35,-1.47l-0.9 0 0 2.82z"/>
   <path class="fil0" d="M89.2 70.04c0.29,0.21 0.26,0.44 0.45,0.79l-0.68 0c0.1,-0.42 0.19,-0.31 0.23,-0.79zm-1.24 1.92c0.78,0 0.54,-0.05 0.79,-0.56l1.13 0c0.06,0.25 0.08,0.26 0.11,0.56l0.68 0c-0.1,-0.43 -0.35,-0.91 -0.52,-1.4 -0.17,-0.45 -0.46,-0.99 -0.5,-1.42l-0.68 0 -1.01 2.82z"/>
   <path class="fil0" d="M95.64 70.04l0.24 0.79 -0.69 0c0.19,-0.35 0.16,-0.58 0.45,-0.79zm-1.47 1.92l0.68 0c0.03,-0.3 0.05,-0.31 0.11,-0.56l1.13 0c0.25,0.51 0.01,0.56 0.8,0.56l-1.02 -2.82 -0.68 0c-0.05,0.62 -0.86,2.16 -1.02,2.82z"/>
   <polygon class="fil0" points="42.96,71.96 44.66,71.96 44.66,71.4 43.64,71.4 43.64,70.72 44.66,70.72 44.66,70.15 43.64,70.15 43.64,69.7 44.66,69.7 44.66,69.14 42.96,69.14 "/>
   <polygon class="fil0" points="84,71.96 85.69,71.96 85.69,71.4 84.68,71.4 84.68,70.72 85.69,70.72 85.69,70.15 84.68,70.15 84.68,69.7 85.69,69.7 85.69,69.14 84,69.14 "/>
   <path class="fil0" d="M57.43 71.06c0,1.27 1.92,1.39 1.92,0.11l0 -2.03 -0.56 0c0,1.82 0.21,2.19 -0.45,2.37 -0.53,-0.38 -0.34,-1.17 -0.34,-2.37l-0.57 0 0 1.92z"/>
   <polygon class="fil0" points="39.91,71.96 41.49,71.96 41.49,71.4 40.47,71.4 40.47,70.72 41.49,70.72 41.49,70.15 40.47,70.15 40.47,69.7 41.49,69.7 41.49,69.14 39.91,69.14 "/>
   <polygon class="fil0" points="74.05,71.96 75.63,71.96 75.63,71.4 74.61,71.4 74.61,70.72 75.63,70.72 75.63,70.15 74.61,70.15 74.61,69.7 75.63,69.7 75.63,69.14 74.05,69.14 "/>
   <path class="fil0" d="M55.28 69.7c0,0.87 0.85,0.94 1.06,1.35 0.09,0.19 0.19,0.15 -0.03,0.36 -0.48,0.47 -0.23,-0.62 -1.14,-0.01 0.21,0.4 0.53,0.62 0.85,0.68l0.27 0c0.38,-0.07 0.69,-0.41 0.69,-1.02 0,-0.58 -1.81,-1.48 -0.85,-1.41 0.6,0.05 -0.07,0.24 0.73,0.05 -0.09,-1.14 -1.58,-0.63 -1.58,0z"/>
   <path class="fil0" d="M85.81 71.4c0.3,0.44 0.63,0.64 0.92,0.68l0.19 0c0.51,-0.06 0.87,-0.61 0.7,-1.13 -0.27,-0.79 -0.95,-0.53 -1.02,-1.36 0.52,0.04 0.31,0.09 0.68,0.34l0.36 -0.44c-0.25,-0.17 -0.48,-0.47 -0.82,-0.47 -0.47,0 -1.49,0.45 -0.25,1.61 0.17,0.16 0.87,0.74 0.27,0.83 -0.63,0.08 -0.09,-0.56 -1.03,-0.06z"/>
   <path class="fil0" d="M80.15 69.7c0.51,0.01 0.53,-0.04 0.57,0.45l-0.57 0 0 -0.45zm-0.56 2.26l0.56 0 0 -1.13c1.58,-0.03 1.41,-1.69 0.34,-1.69l-0.9 0 0 2.82z"/>
   <polygon class="fil0" points="20.46,69.7 20.91,69.7 20.91,71.96 21.59,71.96 21.59,69.7 22.04,69.7 22.04,69.14 20.46,69.14 "/>
   <polygon class="fil0" points="28.6,71.96 30.07,71.96 30.07,71.4 29.28,71.4 29.28,69.14 28.6,69.14 "/>
   <path class="fil0" d="M59.92 71.96l1.47 0c-0.01,-0.36 0.03,-0.56 -0.34,-0.56l-0.45 0 0 -2.26 -0.68 0 0 2.82z"/>
   <path class="fil0" d="M61.39 69.7l0.56 0 0 2.26 0.57 0 0 -2.26c0.56,-0.01 0.55,-0.01 0.56,-0.56l-1.69 0 0 0.56z"/>
   <polygon class="fil0" points="97.34,71.96 98.7,71.96 98.7,71.4 97.9,71.4 97.9,69.14 97.34,69.14 "/>
   <polygon class="fil0" points="30.3,71.96 30.98,71.96 30.98,69.14 30.3,69.14 "/>
   <polygon class="fil0" points="27.47,71.96 28.15,71.96 28.15,69.14 27.47,69.14 "/>
   <polygon class="fil0" points="68.85,71.96 69.41,71.96 69.41,69.14 68.85,69.14 "/>
   <polygon class="fil0" points="93.27,71.96 93.83,71.96 93.83,69.14 93.27,69.14 "/>
  </g>
 </g>
</svg>
